<?xml version="1.0" encoding="UTF-8"?>
<!DOCTYPE svg PUBLIC "-//W3C//DTD SVG 1.1//EN" "http://www.w3.org/Graphics/SVG/1.1/DTD/svg11.dtd">
<!-- Creator: CorelDRAW X7 -->
<svg xmlns="http://www.w3.org/2000/svg" xml:space="preserve" width="8.64238cm" height="3.48216cm" version="1.1" style="shape-rendering:geometricPrecision; text-rendering:geometricPrecision; image-rendering:optimizeQuality; fill-rule:evenodd; clip-rule:evenodd"
viewBox="0 0 653 263"
 xmlns:xlink="http://www.w3.org/1999/xlink">
 <defs>
  <style type="text/css">
   <![CDATA[
    .fil0 {fill:none}
    .fil1 {fill:#EC268F}
    .fil2 {fill:url(#id0)}
   ]]>
  </style>
  <linearGradient id="id0" gradientUnits="userSpaceOnUse" x1="190.675" y1="84.0069" x2="218.903" y2="80.6765">
   <stop offset="0" style="stop-opacity:1; stop-color:#843051"/>
   <stop offset="1" style="stop-opacity:1; stop-color:#9C3369"/>
  </linearGradient>
 </defs>
 <g id="Layer_x0020_1">
  <metadata id="CorelCorpID_0Corel-Layer"/>
  <rect class="fil0" width="653" height="263"/>
  <path class="fil1" d="M196 45c1,0 1,0 2,0l0 0 0 0c0,0 0,0 1,0l0 0c0,0 1,0 1,0l0 0c0,0 1,0 1,0l0 0c1,0 1,0 1,0l1 0 0 0c1,0 1,0 1,1l0 0c23,2 43,13 56,30 -8,7 -18,11 -29,11 -16,0 -21,-8 -35,-8 -26,0 -47,21 -47,47 0,26 21,48 47,48 13,0 17,-10 35,-10 12,0 22,4 30,12 -13,18 -34,29 -58,32l0 0 -1 0c0,0 0,0 0,0l-1 0c0,0 0,0 -1,0l0 0 0 0 0 0c0,0 -1,0 -1,0l0 0 0 0c-1,0 -1,0 -1,0l0 0c-1,0 -1,0 -2,0 0,0 -1,0 -2,0l0 0c0,0 -1,0 -2,0l0 0c0,0 -1,0 -1,0 -1,0 -1,0 -1,0 -1,-1 -1,-1 -1,-1 -1,0 -1,0 -1,0l-1 0c-40,-4 -72,-39 -72,-81 0,-41 32,-76 72,-80l0 0 0 0c1,0 1,0 2,0 0,-1 0,-1 1,-1 0,0 0,0 1,0 0,0 1,0 1,0l0 0c1,0 2,0 2,0l0 0c1,0 2,0 2,0z"/>
  <path class="fil2" d="M205 46c22,2 42,13 55,30 -8,7 -18,11 -29,11 -16,0 -21,-8 -35,-8 -19,0 -35,12 -43,29l-2 7c-1,2 -1,2 -2,4 0,-23 15,-47 26,-56 11,-10 20,-15 30,-17z"/>
  <path class="fil1" d="M179 128c0,-5 1,-9 4,-13 3,-3 7,-5 12,-5 3,0 5,1 7,2 2,1 3,2 3,4 0,1 0,1 0,2 -1,1 -2,1 -3,1 0,0 -1,0 -3,-1 -1,-1 -2,-1 -4,-1 -3,0 -5,1 -6,3 -2,2 -3,5 -3,8 0,3 1,6 3,8 1,2 3,3 6,3 2,0 3,-1 4,-1 2,-1 4,-1 4,-1 1,0 2,0 2,1 1,1 1,1 1,2 0,2 -1,3 -4,4 -2,1 -4,2 -7,2 -5,0 -9,-2 -12,-5 -3,-4 -4,-8 -4,-13zm31 14l0 -27c0,-3 1,-4 4,-4l8 0c4,0 7,1 9,3 2,1 3,4 3,8 0,2 -1,4 -2,6 -2,1 -4,2 -7,3l8 8c1,1 1,2 1,3 0,1 0,1 -1,2 0,1 -1,1 -2,1 -1,0 -1,0 -2,0 0,0 -1,-1 -1,-1l-11 -13 0 11c0,1 0,2 -1,2 0,1 -1,1 -2,1 -1,0 -2,0 -3,-1 0,0 -1,-1 -1,-2zm7 -24l0 8 5 0c2,0 3,0 4,-1 0,-1 1,-2 1,-3 0,-2 -1,-3 -1,-3 -1,-1 -2,-1 -4,-1l-5 0zm35 11l0 13c0,1 0,2 -1,2 0,1 -1,1 -2,1 -2,0 -2,0 -3,-1 -1,0 -1,-1 -1,-2l0 -13 -10 -13c-1,0 -1,-1 -1,-2 0,-1 0,-2 1,-2 1,-1 2,-1 3,-1 1,0 2,0 3,1l8 10 7 -10c1,-1 2,-1 4,-1 1,0 2,0 2,1 1,0 1,1 1,2 0,1 0,2 0,2l-11 13zm25 -19c2,0 4,1 5,1 3,1 4,3 4,4 0,1 0,2 -1,3 0,0 -1,1 -2,1 -1,0 -1,0 -2,-1 -2,0 -4,-1 -4,-1 -2,0 -2,1 -3,1 -1,1 -1,1 -1,2 0,2 1,3 4,3 4,2 6,3 7,3 3,2 5,5 5,8 0,4 -2,6 -4,8 -2,3 -5,4 -9,4 -2,0 -5,-1 -7,-1 -3,-1 -4,-3 -4,-5 0,-1 0,-2 1,-2 0,-1 1,-1 2,-1 1,0 2,0 4,1 1,0 3,1 4,1 1,0 3,-1 4,-1 0,-1 1,-2 1,-3 0,-2 -2,-3 -4,-4 -5,-1 -7,-2 -8,-3 -3,-1 -4,-4 -4,-7 0,-3 1,-6 3,-8 3,-2 5,-3 9,-3zm21 32l0 -24 -5 0c-1,0 -2,-1 -3,-1 0,-1 0,-2 0,-3 0,-1 0,-1 1,-2 0,-1 1,-1 2,-1l17 0c1,0 2,0 3,1 0,1 1,1 1,2 0,1 -1,2 -1,3 -1,0 -1,1 -3,1l-5 0 0 24c0,1 0,2 -1,2 0,1 -1,1 -2,1 -1,0 -2,0 -3,-1 0,0 -1,-1 -1,-2zm18 -2l9 -26c1,-1 1,-2 2,-2 1,-1 2,-2 4,-2 1,0 2,1 3,2 1,0 1,1 2,2l9 26c0,1 0,1 0,1 0,1 0,1 0,1 0,1 0,2 -1,2 0,1 -1,1 -2,1 -1,0 -2,0 -2,0 -1,-1 -1,-1 -1,-2l-2 -5 -13 0 -2 5c0,1 0,1 -1,2 0,0 -1,0 -2,0 -1,0 -2,0 -3,-1 0,0 -1,-1 -1,-2 0,0 0,-1 0,-1 1,0 1,-1 1,-1zm10 -8l9 0 -4 -14 -5 14zm23 9l0 -27c0,-1 1,-2 1,-2 1,-1 2,-1 3,-1 1,0 2,0 3,1 0,0 1,1 1,2l0 24 8 0c1,0 2,1 3,1 0,1 0,2 0,3 0,1 0,1 0,2 -1,1 -2,1 -3,1l-12 0c-1,0 -2,0 -3,-1 0,-1 -1,-2 -1,-3zm35 -13c0,-5 1,-9 4,-13 3,-3 7,-5 12,-5 2,0 5,1 6,2 3,1 4,2 4,4 0,1 0,1 -1,2 0,1 -1,1 -2,1 0,0 -1,0 -3,-1 -1,-1 -3,-1 -4,-1 -3,0 -5,1 -7,3 -1,2 -2,5 -2,8 0,3 1,6 2,8 2,2 4,3 7,3 1,0 3,-1 4,-1 2,-1 4,-1 4,-1 1,0 1,0 2,1 0,1 1,1 1,2 0,2 -2,3 -4,4 -2,1 -4,2 -7,2 -5,0 -9,-2 -12,-5 -3,-4 -4,-8 -4,-13zm31 13l0 -27c0,-1 0,-2 1,-2 1,-1 2,-1 3,-1 1,0 1,0 2,1 1,0 1,1 1,2l0 24 9 0c1,0 2,1 2,1 1,1 1,2 1,3 0,1 0,1 -1,2 0,1 -1,1 -2,1l-12 0c-1,0 -2,0 -3,-1 -1,-1 -1,-2 -1,-3zm21 -1l9 -26c1,-1 1,-2 2,-2 1,-1 2,-2 3,-2 2,0 3,1 4,2 0,0 1,1 1,2l10 26c0,1 0,1 0,1 0,1 0,1 0,1 0,1 0,2 -1,2 0,1 -1,1 -2,1 -1,0 -2,0 -2,0 -1,-1 -1,-1 -2,-2l-1 -5 -13 0 -2 5c0,1 0,1 -1,2 0,0 -1,0 -2,0 -1,0 -2,0 -3,-1 0,0 -1,-1 -1,-2 0,0 0,-1 0,-1 1,0 1,-1 1,-1zm10 -8l9 0 -5 -14 -4 14zm23 10l0 -27c0,-3 2,-4 4,-4l8 0c4,0 7,1 9,3 2,1 3,4 3,8 0,2 -1,4 -2,6 -2,1 -4,2 -7,3l9 8c0,1 0,2 0,3 0,1 0,1 -1,2 0,1 -1,1 -2,1 -1,0 -1,0 -2,0 0,0 0,-1 -1,-1l-10 -13 -1 11c0,1 0,2 0,2 -1,1 -2,1 -3,1 -1,0 -2,0 -3,-1 0,0 -1,-1 -1,-2zm7 -24l0 8 5 0c2,0 3,0 4,-1 0,-1 1,-2 1,-3 0,-2 -1,-3 -1,-3 -1,-1 -2,-1 -4,-1l-5 0zm20 22l9 -26c1,-1 2,-2 2,-2 1,-1 2,-2 4,-2 1,0 2,1 3,2 1,0 1,1 2,2l9 26c0,1 0,1 0,1 0,1 0,1 0,1 0,1 0,2 -1,2 0,1 -1,1 -2,1 -1,0 -2,0 -2,0 -1,-1 -1,-1 -1,-2l-2 -5 -13 0 -1 5c-1,1 -1,1 -2,2 0,0 -1,0 -2,0 -1,0 -2,0 -2,-1 -1,0 -1,-1 -1,-2 0,0 0,-1 0,-1 0,0 0,-1 0,-1zm10 -8l9 0 -4 -14 -5 14z"/>
 </g>
</svg>
